/* XPM */
static char *_07eb3eb7b974d2097e8ecbbc6f1260a[] = {
/* columns rows colors chars-per-pixel */
"64 64 246 2 ",
"   c #050C01",
".  c #0D0D04",
"X  c #0E0C0B",
"o  c #120E06",
"O  c #120E0B",
"+  c #180F0A",
"@  c #051200",
"#  c #0C1403",
"$  c #0D1A02",
"%  c #0E130A",
"&  c #0E190B",
"*  c #121406",
"=  c #191307",
"-  c #131B04",
";  c #181E06",
":  c #13130D",
">  c #19130C",
",  c #141B0B",
"<  c #191C0D",
"1  c #0F0B11",
"2  c #120E12",
"3  c #0E1313",
"4  c #0D1C15",
"5  c #0B181C",
"6  c #151413",
"7  c #191614",
"8  c #161A13",
"9  c #1A1916",
"0  c #15161A",
"q  c #1B171B",
"w  c #151A1B",
"e  c #1C1B1A",
"r  c #360A0D",
"t  c #211E13",
"y  c #211B1B",
"u  c #2A1719",
"i  c #36161A",
"p  c #281009",
"a  c #152305",
"s  c #1C2404",
"d  c #1D2B04",
"f  c #16220B",
"g  c #1B230C",
"h  c #1C2A0D",
"j  c #132B0D",
"k  c #1D3107",
"l  c #0E2413",
"z  c #0C231C",
"x  c #08261B",
"c  c #142314",
"v  c #1B2313",
"b  c #1D2912",
"n  c #15221C",
"m  c #1B221B",
"M  c #1B2A1C",
"N  c #21240C",
"B  c #212C08",
"V  c #24340A",
"C  c #283A0B",
"Z  c #212514",
"A  c #232B15",
"S  c #21221B",
"D  c #232B1B",
"F  c #292E1B",
"G  c #282E16",
"H  c #233215",
"J  c #293514",
"K  c #2D3A14",
"L  c #26331A",
"P  c #2A341D",
"I  c #2D3A1C",
"U  c #333E1E",
"Y  c #313F15",
"T  c #322215",
"R  c #0C1D25",
"E  c #1C1524",
"W  c #141C22",
"Q  c #1B1D23",
"!  c #161E2A",
"~  c #1B1C2B",
"^  c #171727",
"/  c #1B1D32",
"(  c #181E36",
")  c #0C1E32",
"_  c #231424",
"`  c #2B1626",
"'  c #231B23",
"]  c #2A1C26",
"[  c #231B2A",
"{  c #291C2C",
"}  c #2D1628",
"|  c #331E25",
" . c #371A28",
".. c #231E33",
"X. c #2A1E31",
"o. c #0C2223",
"O. c #0D2824",
"+. c #0C232F",
"@. c #0E292D",
"#. c #072422",
"$. c #142223",
"%. c #192626",
"&. c #1B2224",
"*. c #14242C",
"=. c #1B232B",
"-. c #14292C",
";. c #1C2B2E",
":. c #142926",
">. c #1D3529",
",. c #0D2432",
"<. c #0C2B34",
"1. c #0D233A",
"2. c #0D2D3D",
"3. c #042938",
"4. c #152233",
"5. c #1C2333",
"6. c #142A33",
"7. c #1A2B32",
"8. c #14243C",
"9. c #1C253B",
"0. c #19293F",
"q. c #112C3D",
"w. c #083239",
"e. c #153237",
"r. c #222325",
"t. c #232C23",
"y. c #22222C",
"u. c #2B212B",
"i. c #2B2723",
"p. c #31232D",
"a. c #39282A",
"s. c #2B3521",
"d. c #2D3920",
"f. c #2A3A2C",
"g. c #323C24",
"h. c #343E2A",
"j. c #363428",
"k. c #222433",
"l. c #25293D",
"z. c #282737",
"x. c #293834",
"c. c #383C35",
"v. c #302833",
"b. c #470306",
"n. c #560504",
"m. c #4C100F",
"M. c #480C12",
"N. c #570E14",
"B. c #491518",
"V. c #50141E",
"C. c #660507",
"Z. c #750808",
"A. c #640C19",
"S. c #7C0616",
"D. c #491A25",
"F. c #591B29",
"G. c #6E0F23",
"H. c #6C1B2C",
"J. c #661523",
"K. c #761A27",
"L. c #671F33",
"P. c #4B2C2F",
"I. c #632329",
"U. c #75262F",
"Y. c #2E400E",
"T. c #2F4012",
"R. c #334314",
"E. c #34431C",
"W. c #3A4B1B",
"Q. c #39461F",
"!. c #344223",
"~. c #3A4625",
"^. c #3B4A23",
"/. c #3A432C",
"(. c #3C492E",
"). c #37422B",
"_. c #3F5026",
"`. c #394237",
"'. c #47582B",
"]. c #49592C",
"[. c #444E33",
"{. c #434635",
"}. c #455534",
"|. c #47523C",
" X c #4B553C",
".X c #4D5C3F",
"XX c #495C37",
"oX c #4B6132",
"OX c #0E2D43",
"+X c #132B42",
"@X c #182942",
"#X c #1A2340",
"$X c #123241",
"%X c #0E3242",
"&X c #273945",
"*X c #384644",
"=X c #3E5744",
"-X c #434548",
";X c #495A42",
":X c #535D46",
">X c #63494C",
",X c #5D655C",
"<X c #5E6953",
"1X c #576148",
"2X c #626C54",
"3X c #667359",
"4X c #890406",
"5X c #940003",
"6X c #9C0102",
"7X c #960708",
"8X c #950716",
"9X c #871316",
"0X c #921318",
"qX c #84130D",
"wX c #A30203",
"eX c #AC0102",
"rX c #A5000C",
"tX c #B30002",
"yX c #BA0004",
"uX c #B40209",
"iX c #B8050C",
"pX c #A80014",
"aX c #B60416",
"sX c #B11613",
"dX c #A81214",
"fX c #841124",
"gX c #89152B",
"hX c #991329",
"jX c #901D32",
"kX c #AB0C24",
"lX c #BF0723",
"zX c #B2132F",
"xX c #A51A33",
"cX c #B91933",
"vX c #962030",
"bX c #8D222C",
"nX c #BA2336",
"mX c #C2020C",
"MX c #C30002",
"NX c #C70517",
"BX c #D30112",
"VX c #D50317",
"CX c #D5142B",
"ZX c #CA1832",
"AX c #D0112C",
"SX c #E30C25",
/* pixels */
"7 7 q q 9 9 e 9 9 e 9 e e e e v c c c v e e e e y ' [ [ [ ../ / ~ [ [ ' [ ' ' e e v v v v 9 t t e e e e e e e e 9 9 9 9 y y y 9 ",
"7 7 7 q 9 9 e 9 9 e 9 e e e e e n n e e y e e e Q Q ' [ [ [ ~ ~ ~ Q Q ' ' ' y e e n n n v e t y e e e e e e e e 9 9 9 9 y y y y ",
"7 7 7 q 9 e e 9 9 e e e e e e e ' ' ' ' ' ' Q &.&.%.&.&.&.&.%.%.$.n m e y y y m $.$.$.$.&.Q ' ' e e e e e e e e 9 9 9 9 y 9 y y ",
"7 7 7 q 9 e e 9 9 e e e e e e e ' ` ` ' [ [ ~ %.%.%.%.%.%.%.%.%.$.n n M &.&.&.&.&.%.%.%.Q [ ' ' e e e e e e e e 9 9 9 9 9 9 y y ",
"7 7 7 9 9 e e 9 e e e e e e e e _ ` Q Q ~ =.[ [ y.=.*.-.-.-.%.y.%.%.:.:.O.:.%.&.' ] } } ` [ [ Q e e e e e e e e y y y y y y y y ",
"7 7 7 9 9 9 e 9 e e e e e e e e y ' Q $.*.=.......5.6.<.<.6.7.5.5.;.-.-.@.@.*.=.[ } } } ` ' Q Q e e e e e e e e y y y y y y y y ",
"7 7 7 9 9 e e e e e e e e e e e e m n $.%.=.....l.9.8.OX2.2.q.0.9.9.9.5.4.4.5.~ [ ' ' ' e n l c e e e e e e e e 9 9 9 9 9 9 y y ",
"7 7 7 9 9 e e e e e e e e e e e v v n $.%.=.5.9.9.#X+X+XOXOXOX+X@X0.0.9.9.5...[ ' ' Q e n c l l e e e e e e e e 9 9 9 9 9 9 y y ",
"7 7 9 9 9 9 e e e q q q e e e e w m &.&.=.5.9.0.8.8.8.8.@X+X+X$X2.2.e.6.4.=.y.u.{ ' y y m v c c e e e e e e e e 9 9 9 9 9 9 9 9 ",
"7 7 9 9 9 9 e e q q q q e e Q &.%.%.=.*.*.5.5.9.l.l.l.z...X.{ { p.] ] u.v.v.[ q [ [ ' ' e e m e e e e e e e e e 9 y y y y 9 y y ",
"8 8 7 9 9 9 e e q q q q Q Q Q Q 5.4.<.3.<.6.k.X.} }  . .D.F.H.gXxXhXfXG.V.i i.r.$.$.%.%.Q Q Q Q e e e e e e e e y y y y y y y y ",
"8 8 7 9 9 9 e e q q q Q Q Q Q ~ ( 8.w.w.w.6. .D.L.H.I.I.U.bXzXZXAXCXZXnXvXK.V.i r.%.$.$.~ ~ [ _ e e e e e e e e y y y y y y y y ",
"8 8 7 7 7 7 w e q e Q Q Q Q Q ~ ( 8.3.w.@.u.F.gXxXhX9X9X0XdXNXVXNXNXNXAXZXcXhXG.F.| Q W %.=.[ E e e e e e e e e y y 9 y y y y y ",
"8 8 7 7 7 7 w w e e Q Q Q Q Q ~ k.5.,.-.u.D.fXzXlXaXrX5X6XeXMXMXyXtXtXyXmXlXkXvXH.D.] &.%.=.Q q e e e e e e e e 9 9 9 9 9 9 y y ",
"8 8 7 7 7 9 w w e Q Q Q Q Q Q ~ y.[ ] D.J.fXkXAXSXSXVXmXuXeXeXeX6XwXeXuXrX6X8XfXN.B.u S m m e e e e e e e e e e 9 9 9 9 9 9 y y ",
"8 8 7 7 7 9 w w e Q Q Q Q Q Q Q =.[ | P.U.jXkXNXNXBXVXBXmXiXiXsXsXdX6X5X5X4XS.A.b.i u S e e e S e e e e e e e e 9 9 9 9 9 9 9 9 ",
"8 8 8 8 7 9 w w w q q Q Q Q Q Q ~ ~ [ u.D.F.K.hXpXNXyXmXmXeXwX6X6X5X5X4XZ.C.m.r i ] [ Q Q Q [ ' e e e e e e e 9 9 9 9 9 9 9 9 9 ",
"8 8 8 8 7 9 w w w q q Q Q Q Q ~ 5.4.*.*.y.| D.A.S.8XpXaXaXwX7X5X7X8XqXZ.n.b.r u ] y.[ ~ Q Q [ Q e e e e e e e 9 9 9 9 9 9 9 9 9 ",
"8 8 8 8 7 9 w w w w q Q Q Q Q ! *.,.+.+.*.&.| D.H.bXfX8X0X9XqXZ.Z.C.n.n.m.r u p.' =.=.Q Q Q ' e e e e e e e e 9 9 9 e 9 9 9 9 9 ",
"8 8 8 8 7 9 w 9 w w q q Q Q Q ! ! +.,.,.,.6.k.p. .D.M.b.n.n.b.b.b.N.m.M.i u y r.Q %.=.%.Q e e e e e e e e e 9 9 9 9 e e 9 9 9 9 ",
": 8 8 8 7 7 w 9 w e q q Q Q Q Q [ / / 4.4.,.4.*.*.y.u.a.j.P.T p p P.>Xa.y Q Q 5 $.=.;.%.e 9 e v 9 e e e 9 9 9 9 9 9 9 9 9 9 9 9 ",
": : 8 8 7 7 9 9 w e q Q Q Q Q Q [ [ [ / 4.,.1.<.<.,.e.;.x.c.t.t.i.j.-X-Xz.*.$.R $.;.;.%.w 9 9 e 9 e e 9 9 9 9 e 9 9 9 9 9 9 9 9 ",
"8 8 : 8 7 9 w w w w q q Q Q Q Q Q Q ~ ~ 5.8.2.2.%Xw.2.<.e.x.t.c.*X4 o.*X&X*.*.*.$.*.=.W W e e 9 9 e 9 9 9 9 9 e 9 9 9 9 9 9 9 9 ",
": 8 : 8 7 9 w w w w q q w Q Q Q Q Q Q ~ / ( 1.1.3.3.2.e.e.;.&.`.=Xx O.e.+.+.6.5 $.$.W W Q r.S e e e 9 9 9 9 9 e 9 9 9 9 9 9 9 9 ",
": : : 8 8 7 9 w 0 0 w q w w Q W n n $.W ~ / ( 8.1.1.,.6.7.*.%.f.;Xl O.6.,.4.*.=.$.W ~ ~ ~ ~ Q e 9 9 9 9 9 9 9 9 9 9 9 9 7 7 7 9 ",
": : : 6 8 7 7 9 0 0 w q w w Q W z z $.W ~ ~ / ( 4.) ,.@.-.$.$.f.XXj z -.4.4.$.%.w Q ~ ~ / ~ Q Q e 9 9 9 9 9 9 9 9 9 9 9 9 9 9 9 ",
": : : 8 8 7 7 7 0 0 w w w w W W z z n W ~ ~ ~ / 4.R 6.@.O.O.x f.XXk c =.4.5.Q m e e Q ~ ~ ~ Q e e 9 9 9 9 9 9 9 9 9 9 9 9 9 9 9 ",
": : : 8 8 8 7 7 0 0 w w w w W W z z z $.W ! ~ ! ! W 7.o.O.:.x >.oXV 8 %.5.~ Q 9 9 e Q ~ ~ ~ q e 9 9 9 9 9 9 9 9 9 9 9 9 9 9 9 9 ",
": : 6 6 6 8 6 7 0 0 0 w w w W W z x x #.o.o.$.W *.W %.w w %.n M ].C , W 5.! n 8 b v w Q ~ ~ q 8 9 9 9 9 9 9 9 9 9 9 9 9 9 9 9 9 ",
": : : 6 6 6 6 6 0 0 0 w w w W W R R o.o.o.o.o.$.$.%.q e r.m e b ].R., W 5.! n c h f w W ~ Q 9 8 9 9 9 9 9 9 9 9 9 9 9 9 9 7 9 7 ",
": : : 6 6 6 6 6 6 7 0 0 w w w E E _ E ^ W W W W w &.e c.*Xn w f '.R., W 4.R n f h h M &.W w < < 9 9 9 9 9 e 9 9 9 9 9 9 9 9 7 7 ",
": : : : 6 6 6 6 6 7 0 0 w w w q _ _ _ E ^ W W W 4 m t.,X,XM 4 f '.R., w *.5 c f H L s.t.&.9 7 9 9 9 9 9 9 9 9 9 7 7 7 7 7 7 7 7 ",
"6 6 6 6 6 6 6 7 6 7 0 0 0 0 0 q 0 q Q W W W w w 8 , :X<X`.M & c XXK $ - v c h a }.}.2X|.8 8 m 9 7 7 7 8 9 9 7 8 7 7 8 8 7 7 > > ",
"6 6 6 6 6 6 6 6 6 6 0 0 0 0 0 7 3 8 w W W W W m v @ .X3X).D c & U Q.s - A $ h .XXX(.|.h.v m 9 6 9 7 8 9 9 e 9 9 7 7 8 8 7 > > > ",
"O : 6 6 6 6 6 6 6 6 7 0 0 0 0 9 9 6 3 0 w 0 3   ,   (.1Xh.D 8 , [.K - # - g.;X(.P /.|.f.v m w e 9 7 8 8 8 8 7 7 7 7 8 8 7 > > > ",
"O : : 6 6 6 6 6 6 6 6 7 7 0 0 0 6 6 3 w W %.x.`.h.<X<XL g s.v # U U # @ g.;X/.- /.<X<Xh.8 8 9 9 8 : : : 8 8 8 6 7 7 7 8 7 7 7 > ",
"O O 6 6 6 6 6 6 6 6 6 6 7 7 0 0 3 w Q w 3 e `.,X<X2X[.- - g : , J J # # H H L I }..X!.f f c , % , , : : 7 9 7 7 7 7 7 7 7 7 7 7 ",
"O O O 6 : 6 6 6 6 6 6 6 7 7 7 7 w w w 0 3 % 8 D /.- @ g - - , - Q.B $ $ $ H }.^.K V $ a I b g v v 8 , : 8 8 7 7 7 7 7 7 7 7 7 7 ",
"O O O O : : 6 6 6 6 6 6 6 6 7 7 w 3 6 e S e * * , - g g - Z F   B W.d $ E.'.W.C T.T.V W._.K K I g.s.S 7 8 : 8 7 7 7 7 7 7 7 7 7 ",
"O O O O : : 6 6 6 6 6 6 6 6 7 7 0 7 9 9 % . < F F Z ; g -   - g.R.R.C k d K ^.R.R.W.Y.R.E.Q.'.~. X{.j.S 7 8 7 9 7 7 7 7 7 7 7 7 ",
"O O O O O : 6 6 : : 6 6 6 6 6 6 3 7 6 : 8 v Z A L A A ;   ; {.:X^.R.K K J E.~.U E.R.R.^.].XX}.(.I A v 9 9 7 8 8 7 7 7 7 7 7 7 7 ",
"O O O O O : : : : : 6 6 6 6 6 6 0 e 8 7 A F A G g - - ; ; F /.(.~.E.K h g b v f A h d d h a $ # , * : : 7 8 7 9 7 7 7 7 7 7 7 7 ",
"O O O O O O : : : : : 6 6 6 6 6 6 8 , , A h - - a - g P g./.).I L s.b & 8 8 % % % % , , & & & 8 : * : : 8 8 8 7 7 7 7 7 7 7 7 7 ",
"O O O O O O : : O : : 6 6 6 6 6 X % # - - - # - # - b F P F Z f , M 8 % w w 3 w 6 8 8 8 6 3 w w 8 < 8 8 9 8 8 7 7 7 7 7 7 7 7 7 ",
"O O O O X : : : : : : : 6 6 6 6 6 8 f g d d B K - - , , , , # # , D 8 % w w 6 q e 9 7 6 6 3 0 6 8 : : 8 8 6 6 7 8 7 7 8 7 7 7 > ",
"O O O O X O : : : : : : 6 6 6 6 : v s.~.^.R.K E.U I b , v , $ $ - v v : 7 7 6 0 6 6 % % 6 9 w w 8 : : : 8 6 6 7 8 8 8 8 7 > > > ",
". O O O X O : : O O % : : 6 6 : % , L ~.'.W.V d !.g.b & , , # - - g g , : : 8 8 > * % % % % % % 7 : 8 9 e 7 6 6 8 8 8 8 7 > > > ",
"X X O X O : : : : : % % % : : % , # # h E.E.V d h A v : , , , A - s Z g * : < * * * * - , , 8 v : : : 8 m e 7 8 8 8 8 8 7 > > > ",
"X X 1 X 2 : : : 8 % . # - # @ # # $ $ @ $ a a $ - - # # , m S v b A A , , < , . , 8 , # - g g - f - g , , v A Z : : : : 7 7 6 : ",
"1 1 1 X X : : : : , g b b h h h h f a $ $ $ $ $ A , * , 8 9 : % # < A v # # # : # # - , v b g f h a f a , A s.s.v 8 : : : 7 7 7 ",
"X X X X X % : : , Z s.g.g.g.!.g.L H H P P L I ).).b # : 8 8 : : % * , , : % .   # # # g b g g g @ # g P g.(.{.c.S e : : : 6 7 7 ",
"O X X X X O : * # v s.g.g.g.g.P P L P d.I L H L g.b * : 8 : 8 8 , # @ # : # @   @     @ # - , g g.F b , * , , : : : : 6 7 7 6 : ",
"O O . . . % % % v F g.g.g.g.d.L L s.s.s.s.P A g # - < 8 7 : : % % # , * @ . , v 8 v 8 , v P g.s.v %       % 8 8 O O : 6 7 6 6 2 ",
"O O . . . . % % * , , , , , # @   # $ - g A g #   : v 8 : : : : < , , # % % , 8 # , , @ # v v , : % 8 9 9 8 8 X 6 6 6 6 6 6 6 6 ",
"O O . o X . * % : % % : % . . . # $ , , < < < , , , < , : : 8 7 Z g , # , 8 ,   , 8 8 : : * * . 9 : X : X % 7 7 7 6 6 6 6 6 6 6 ",
"O O X X X X O O : X % : : X % : : @ # * * # * < < * : 7 9 : X : * < v , # , , % 8 8 , , : : : : : X 6 9 8 : 6 6 2 6 6 6 6 6 2 6 ",
"O O O O O O O O 2 2 2 2 2 6 2 : . % : * , < < < Z 9 < 7 7 7 : : * g v v , % % # m 8 % 8 : . : 7 6 6 6 6 6 6 6 6 6 6 6 6 6 6 6 6 ",
"X O X O O O O 2 2 2 2 2 2 2 2 2 : : < 8 9 9 < < < : : : : : : : Z A A , # % 8 v % % : 8 8 O o : 6 6 6 6 6 6 6 6 6 6 6 6 6 6 6 6 ",
"X X X X 2 2 2 2 2 2 2 2 2 2 2 2 : : > < 7 < > : o * : : : : 6 : * g g - @ @ # #   # : 8 : : O : 6 6 6 6 6 6 6 6 6 6 6 6 6 6 6 6 ",
"X X X X O O 2 2 2 2 2 2 2 2 2 2 O O : : : * o o o : : : : : 6 7 * ; N g - # #   # : : : O : > > > : : : : : : : > > 6 6 6 6 6 6 ",
"X X X O O O O O 2 2 2 2 2 2 O O : O O O O : : : O > > > : : 7 7 ; g s - # # # @ , : % . O > 6 > > > > > > > : : > > : : : : 6 6 ",
"X X X O O O O O O O O O O O O O : : : O O : > > : > : : : : 6 : g s - @   @ @   # # . % : 7 > O > > > > > > : : > > : : > : 6 6 ",
"X X X X o o o o O O O O O O O O O O O O O O : : : : : : : 6 6 : N s s - f g , @ #   . : > > + > > > > > = > > > > : : : > > > > ",
". . . . o o o o * * * * + + + O O O O O O O o o > : O : 6 6 6 : N s s a g A b , & @ % : > O O > > = = = = = > > > : : : > > > > "
};
