/* XPM */
static char *f480059c3e2a4057e1218eb46e9741967yuVQYhrY5FbpVfU[] = {
/* columns rows colors chars-per-pixel */
"64 64 245 2 ",
"   c #050103",
".  c #0C0203",
"X  c #0E0904",
"o  c #06030A",
"O  c #0B040A",
"+  c #0C090D",
"@  c #140403",
"#  c #1B0300",
"$  c #130A04",
"%  c #1B0A03",
"&  c #12060A",
"*  c #150B0B",
"=  c #1A0C0B",
"-  c #1A050A",
";  c #1C110C",
":  c #1B1603",
">  c #0C0915",
",  c #140C12",
"<  c #1A0D12",
"1  c #150A17",
"2  c #141115",
"3  c #1C1212",
"4  c #1C141B",
"5  c #1A1717",
"6  c #0F1012",
"7  c #220500",
"8  c #220C04",
"9  c #220D0B",
"0  c #2A0C05",
"q  c #370D09",
"w  c #2C1304",
"e  c #24130C",
"r  c #2B140B",
"t  c #231C0B",
"y  c #2B1A0C",
"u  c #221805",
"i  c #35180B",
"p  c #240C13",
"a  c #231413",
"s  c #251B13",
"d  c #2B1D14",
"f  c #22151A",
"g  c #241A1B",
"h  c #2C1D1C",
"j  c #2A1517",
"k  c #331C12",
"l  c #381A15",
"z  c #252209",
"x  c #282316",
"c  c #3A2518",
"v  c #38210F",
"b  c #190D27",
"n  c #1B1426",
"m  c #120D28",
"M  c #2C1D23",
"N  c #251927",
"B  c #331D28",
"V  c #251B34",
"C  c #2C222B",
"Z  c #2B2525",
"A  c #332324",
"S  c #342828",
"D  c #2B2537",
"F  c #382A36",
"G  c #393339",
"H  c #3F322C",
"J  c #491B13",
"K  c #50190D",
"L  c #4B2C1B",
"P  c #462718",
"I  c #552B18",
"U  c #57331B",
"Y  c #4C2E16",
"T  c #6B2419",
"R  c #6E361D",
"E  c #482922",
"W  c #582922",
"Q  c #443222",
"!  c #4B3626",
"~  c #583728",
"^  c #473736",
"/  c #573832",
"(  c #653B28",
")  c #783729",
"_  c #673A34",
"`  c #70352E",
"'  c #621711",
"]  c #584336",
"[  c #4E403D",
"{  c #64422D",
"}  c #6C442A",
"|  c #6B462A",
" . c #74462B",
".. c #694537",
"X. c #734B33",
"o. c #784937",
"O. c #7B523A",
"+. c #77513B",
"@. c #382B48",
"#. c #3B334A",
"$. c #302748",
"%. c #473B48",
"&. c #463A53",
"*. c #513F4B",
"=. c #3F4C6F",
"-. c #4B4148",
";. c #524549",
":. c #4B4457",
">. c #544859",
",. c #5C555C",
"<. c #794A42",
"1. c #7C5544",
"2. c #795648",
"3. c #6C524F",
"4. c #46476A",
"5. c #554A65",
"6. c #5C5468",
"7. c #454D75",
"8. c #445175",
"9. c #495378",
"0. c #5B5577",
"q. c #544E77",
"w. c #655969",
"e. c #665B76",
"r. c #6C637C",
"t. c #6B6376",
"y. c #71657D",
"u. c #756A7B",
"i. c #736A74",
"p. c #813B2B",
"a. c #853E35",
"s. c #84442D",
"d. c #844432",
"f. c #884B37",
"g. c #83543B",
"h. c #8C523C",
"j. c #875639",
"k. c #94543D",
"l. c #914F36",
"z. c #8B5C44",
"x. c #8B5D4C",
"c. c #865747",
"v. c #945B45",
"b. c #9D5B45",
"n. c #935C4C",
"m. c #985949",
"M. c #895B54",
"N. c #9A5E54",
"B. c #935C52",
"V. c #874D43",
"C. c #A25E49",
"Z. c #8B624B",
"A. c #94644C",
"S. c #98664D",
"D. c #8C6253",
"F. c #896359",
"G. c #946453",
"H. c #9C6B5B",
"J. c #986658",
"K. c #9B715B",
"L. c #A3634D",
"P. c #A26653",
"I. c #A66959",
"U. c #A7725D",
"Y. c #B26D5D",
"T. c #996A63",
"R. c #9B7467",
"E. c #95756D",
"W. c #A97667",
"Q. c #B67868",
"!. c #AB7C76",
"~. c #AF746C",
"^. c #B88577",
"/. c #AF8376",
"(. c #C98B7B",
"). c #665D85",
"_. c #685E90",
"`. c #5D6B96",
"'. c #6C6484",
"]. c #6B648C",
"[. c #6B6A8A",
"{. c #726583",
"}. c #746A84",
"|. c #7A6D85",
" X c #746B8B",
".X c #7A6B8C",
"XX c #73678B",
"oX c #7B728D",
"OX c #797285",
"+X c #6C6594",
"@X c #6D6C95",
"#X c #6B669A",
"$X c #6C6C9C",
"%X c #656A99",
"&X c #736C94",
"*X c #7B6E92",
"=X c #726C9D",
"-X c #756997",
";X c #67719C",
":X c #7B7393",
">X c #74719C",
",X c #7B749A",
"<X c #7B7C9C",
"1X c #777897",
"2X c #6D6BA3",
"3X c #6D6DAA",
"4X c #6967A5",
"5X c #726CA5",
"6X c #736DA9",
"7X c #786EA7",
"8X c #6F70A3",
"9X c #6C72A7",
"0X c #7371A5",
"qX c #7571AC",
"wX c #7872AE",
"eX c #7879A2",
"rX c #7874B2",
"tX c #726FB1",
"yX c #817484",
"uX c #82738C",
"iX c #86798C",
"pX c #827593",
"aX c #857A93",
"sX c #8A7B94",
"dX c #837B9B",
"fX c #8B7C9B",
"gX c #857697",
"hX c #927E9B",
"jX c #806F8F",
"kX c #857CA2",
"lX c #7C82A4",
"zX c #7882A4",
"xX c #7C809D",
"cX c #8D819C",
"vX c #868199",
"bX c #93849F",
"nX c #B98E85",
"mX c #8C83A4",
"MX c #8685A7",
"NX c #9283A2",
"BX c #9488A8",
"VX c #C4948A",
"CX c #CB948B",
"ZX c #D8A396",
"AX c #E2A894",
/* pixels */
"#.#.@.@.$.&.q.{.-X-X#X5X7X6X3XrX8X@XeX4.m n n 4 f @ # w J W { { +.<._ J l p q 7 7 p ;.^ e.<XeXrXwXwXwXwXwXwXwXwXwXwXwXwXwXwXwXwX",
"N V V N b V V $.q.-XkX7X6XrXtXqX>X@X&X#.m n 4 4 e @ 8 P ! ..<.<.2.2.2._ _ _ / E # @ A F 6.&X>X5X0XwXwXwXwXwX6X6XwX6X6X6XtX6X6X6X",
"b N V V V V V V @.{.kX-X2XrXrX2X$X>X).V > m 2 4 = # k ! ..2.D.Z.M.M.F.M.N.T.T.M.E # p F &..X=X=X6X6X6X6X6X6X6X6X6X5X6X6X6X6X6X6X",
"b b b n b b b b $.).kX4X@X0X3X2X%X[.=.m > m 5 5 $ 9 c ..2.D.F.G.B.G.T.J.~.!.~.iXT.J # B F ).&X5X5X5X6X6X6X6X6X5X5X5X5X3X4X5X6X6X",
"&.&.#.#.#.&.#.@.5.).-X+X#X#X4X5X@X[.#.> > 4 4 3 e y H ..2.Z.J.F.N.T.N.~.!.(.CXCXVX*.p j B 5._.4X5X6X6X6X6X6X6X6X6X6X6X6X7X6X6X6X",
"aX:XaXaXaXpX:X.X).XX&X+X5X@X#X0X1X0.D > n 4 h s d k ] 2.2.D.G.G.T.N.T.N.T.hXCXCXZXM.q B B @.jXjX7X6X6X6XqX6X6X6X6X6X6X6X6X6X6X6X",
"oX:XaXfXfXsXaXgX.X*X&X&X7X@X#X>X X5.V C n 5 S d y v / 2.Z.Z.K.G.N.N.N.N.N.~.Q.CXZXT.W J B @.).jX7XqXwXwXwXwX6X6X6X6X7XwXwX7X6X6X",
"<XaXdXsXpXaXgXfX{.jX*X&X=X5X@X&X1X:.n D Z 5 S d % i ~ 2.2.D.D.G.B.N.N.N.N.N.~.(.ZX~.W q B B ).kX7XwXwXwXwXwXwXwXwX6X6X6XtX6X6X6X",
"kXkXkXkXhXkXkXhX.X-X*X-X&X+X+X-X}.C n C G S s : % % ..2.2.B.M.N.c.x.n.n.N.N.I.^.(.~._ p l B 5.jX7X6X7X6X6X6X6X6X6X6X6X6X6X7X6X6X",
"BXBXBXBXBXhXhXkXjX.X*X-X-XXX+X].0.C n Z Z x % # % y 2.2.<.V.M.N.H.J.B.n.N.N.T.~.(.~._ 7 p N &.jX#X5X4X4X4X6X5X5X5X6X6X6X4X5X6X4X",
"BXBXBXBXBXBXhXhXjXjXgX*X,X-X&X'.:.C C N 5 3 @ @ % i <.M.T.~.T.M.M.x.c.B.I.I.I.~.(.!.N.l p p #..X-X6X7X5X6X5X7X6X6X7X6X6X6X6X7X6X",
"mXmXhXBXBXBXhXhXjXgXgXgXgX,X-X'.$.C Z f * ; @ @ 7 ] !.E.2.c.N.T.D.J.T.J.T.N.N.~.W.!.M.q p 1 @. X7X6XtXwX7XtXtXwX6XtXtX7XwXwX6X6X",
"kXkXkXkXhXhXkXfX.XjXgXgXgXgX&X'.D C C < @ = . @ y ..F...J J K W 2.D.F.M.M.J.~.VXCXVXM.# - N #.XX7X6X7XwXwXwXwXwXtXwX7XtXtX6XwXwX",
",XkXdXfXfXgXgXfX{..X.XjX-X*XXXe.V C C & . @ . @ 3.E.F.F.M.<.` J Y ..2.F.M.M.B.N.!.VXnXE - O D &X7X6X6X6X7XtXtX7X6X6X6X6X7X6X6X6X",
"dXdXkXfXkXfXfXsX{.jX.XXXXX*X).0.N M M & X @ . 9 3.E.E.E.M.<.<.<.~ 2.2.F.M.<.K K K V.E.l . O V 1X5X5X6X6X5X4X6X4X7X5X6X5X5X5X6X6X",
"kXkXmXkXhXhXhXsX{.jXjXXX.X.X{.6.n M C , @ @ @ E E.nX2._ W W _ _ +.2.2.2.<._ W J I _ 2.9 - n V 0.#X4X5X5X6X5X6X5X5X6X6X6X4X5X5X6X",
"q.MXBXMXBXbXbXbX&X.X,X,X*X:Xy.5.N F Z * < @ 0 F.hXm.` W J J J E _ 2.M...<._ / _ / ..E.j @ - N 6.-X7X7XtX5X5XqXeX3X3X9X3X6X0XtXrX",
").MXBXmXBXbXNXhX*X:X,X<X,X:Xy.>.4 C M f d r / !.T.V.) W K 0 r J _ V.c.o._ / W J / / 3.M - 1 j w.-X7XkX7X6X0XqXwX0X8X9XqXqXqXwXrX",
"9.MXMXfXhXhXhXhX*X&X,X,X:X:Xy.>.N S N M a r 2./.T.B.V.` W l J E ( o.c.V.W W I q E j / p - - < 5.-X7XtX7X7XqXwX5X0XqXqXqXwXwXwXwX",
"7.eXdX:XhXsXsXgX.X[.:X1X.X}.e.:.F B < x % e T.E.T.I.N.n.` W / _ o.V.G.H.` ( ( q q q _ p @ & 1 *.-X7X7X7X7X0X0X6X9X0XqXqXwXrXwX6X",
"7.eXdXpXhXsXgXuX{.]. X XXX{.w.&.S f @ d @ r R.W.I.P.N.m.V.+.+.1.O.G.W.CXo.` o.I J _ E.B @ # p &._.7XjXtX6X7X5X4X2X8X3X6X3X6X6X6X",
"9.lXvXdXhXsXhXsXXX[.&X&XXX{.w.*.F < & r @ P !.H.I.P.N.N.N.x.M.c.B.I.W.AXv.o.d.W ` T.nXE @ - < F )._.-X7X4X4X5X4X9X2X3X3X2X6X6X2X",
"9.MXmXdXhXhXhXsX.XXX*X*X.X{.e.*.F @ % e @ ! R.J.Y.Y.P.L.S.G.G.x.I.W.P.AXP.f.V. .M./.ZXE # 9 p C 5._.7X4X-X5X5X4X9X9X3X9X5X5X5X6X",
"9.MXMXfXNXhXhXhX.X.X,X*X{.yXw.&.M . @ @ @ ~ K.K.I.Y.I.L.m.n.z.c.Y.Y.k.AXI.k.v.h.J./.nXE # j p M 5._.jX6X7X7X7X5XqXwXqX0XqXqX6X6X",
"9.lXvX<XfXsXsXhX{.oX X:X.XjXyX^ a . @ @ # P W.U.Y.I.L.L.v.h.g.g.S.W.v.(.(.l.Q.Y.Q.^.^.P 7 @ j F &._.eX,X5X5X6X0X3XqXqX3XqXwX0XqX",
"8.zXxX,XsXpXsXpX}.*X XoXXXE.w.B < @ % @ @ P R.K.U.L.b.b.h.f.g.z.Y.P.C.Y.Q.l.C.Y.U.^.^.v 7 # j M @.).kX=X=X0X0X6X3X3X9X2X0X3X5X5X",
"=.1X1X:XaXuXjXuXy. X{. Xy.e.>.N & @ = @ @ v K.K.Y.L.C.k.l.s.j.Z.k.) v.s.C.b.l.C.U.^.W.0 # # a n $.0.,X@X=X$X2X2X3X4X4X9X2X2X2X$X",
"8.<X<X:XsXuXuXuXe.{.}.}.yXe.*.j * * ; . @ y G.K.L.L.b.l.d. .j.v.` ) f.' s.b.l.l.L.^.D.7 # = f 4 V q.&X&X@X5X$X4X3X3X3X4X4X5X#X5X",
"8.zXlX<XcXaXsXiX{.}.OX}.}.w.%.j 4 3 3 . . 8 D.K.L.C.k.s.l.j.j.z.n.m.p.T s.s.l.l.A.W.+.# # 3 g n V q.*X=X=X0X5X3X3X3X3X3X5X5X5X5X",
"8.zXlXvXbXsXsXaX.X.XoX}.u.w.B N M 4 3 . @ % +.K.P.L.k.l.j.k.S.S.I.b.s.Y.Y.R s.l.k.U.~ # 8 ; g D $.e.:X,X,XwXwX9XtX3XqXqX6X0X7X0X",
"8.zXzXxXcXaXiXaX|. XoX}.u.,.B j Z 5 * $ % @ _ K.I.I.C.l.s.l.Z.A.n.f.l.Q.(.s.s.s.h.H.P # 9 * 4 D D 0.,X>X0XeXqXqXtX9X5X0X0X5X0X>X",
"8.zXzX1XcXiXiXuXy.{.oXt.u.,.j B C 2 * * : . ~ G.S.P.b.s.R  . . .` ) l.b.Y.s.s.s.f.J.J @ = @ , G D 0.*X&X$X8X3X3X3X3X3X3X3X5X5X5X",
"=.1X1XOXiX|.yXyXt.}.oXt.t.>.M B x a @ * - % A 2.G.P.A.f.d.h. .T T ' ' ' T p.a.a.n.M.7 8 @ . N n D 0.@X8X6X4XtX4X4X4X2X2X3X5X2X5X",
"=.xXxXoXaXyXyXiXe.r.r.6.w.*.h M h 3 & * 3 - k ..J.S.v.k.m.S.v.d.T ` a.a.p.' T m.I.;.# # @   5 4 $.).&X$X6X4XtX4X4X4X2X2X3X2X3X6X",
"8.zX<X<XcXiXiXiXy.y.e.:.*.%.f h f = X & < @ 8 P x.g.k.v.P.I.S.V.a.p.p.m.Y.V.` N.W.J @ # ; o 2 > #.'.&X5X6X6XtX3XtX3X3X8X6X6X6X6X",
"8.zXMXvXbXiXvXsX|.y.w.&.&.F f h 3 = . X * . @ w X.c.v.A.v.v.j.O.V.p.T m.CX~.V.V.J.7 # @ < * 2 > :.XX,X=X6XtXrXtXtX6X0X0XwX6XwXtX",
"8.zXzXvXNXsXsXsX|.}.6.&.&.F < h ; $     O . . 7 P O.U.S.j.S.A.j.) a.) v.Q.~.V.c...@ % . + 4 n > 4.}.+X-X5X3XrXtX3X3X3X5X6XqX6X6X",
"8.zXxXxXfXiXiXsX}.{.e.:.%.F < j = *     X   . @ 8 { G.A.Z.S.S.A.f.m.h.V.I.T.2.<.q @ - @ o 4 5 2 :.'.].].=X4X6X4X2X2X$X$X2X2X2X6X",
"8.zX<X1XaXoXuXiXr.}.r.>.-.F & a < : X   o X . @ % J | Z.z.Z.K.S.S.S.z.z.J.T.<.l @ @ @ < X 2 + n :.r.).`.=X$X6X4X4X%X#X2X5X4X2X4X",
"8.9X1XoXpX|.uXoXr.}.}.6.>.F - a * : *   o X   . w i U j./.A.Z.S.A.v.A.H.F.2./ 7 . & @ g , ,   n >.r.).[.5X5X6X4X9X2X$X#X5X2X5X6X",
"8.9X1X1XfXuXuXOXu.e.r.OXw.Z @ @ : g *   6 6     y { Y I X.j.z.j.g.O.j.Z.1.P 7 @ . @ , , & 2 4 , :.e.:X].@XwX4XqX2X8X8X8X0X0XwX6X",
"8.eXxX<XcXiXiXiXr.t.u.OXw.Z = = ; s <   6 6   . 8 ] ~ ( | R | | | } } ( L 8 . . . . , < , f M 4 #.6.[.].+X0X2X9X8X$X8X2X2X5X6X6X",
"8.zXlXvXbXsXsXsXt.i.u.i.;.Z : 8 y e * + 6 +   . @ ~ +.| ( Y U U I I I i 7 . . . . . , 3 a j A g G -.'.[.+X=X#X2X;X$X$X$X5X2X3X6X",
"8.zXlXdXvXyXiXyXt.i.i.,.G x e % d ; $ 2 2 o   X % Q ] X.| | R U K K Y i # . . O O o , 4 f B A M g @.t. X].$X#X2X%X2X$X$X#X2X2X2X",
"=.xXxXxXE.OXyXyXi.t.,.%.A x t 8 d % @ , 6 o o X % v ~ X.X.O.| R Y I L i # @ & O O o , 4 a h c M 5 D 6.[.].$X%X$X;X$X$X$X=X$X2X5X",
"=.xXxXu.OXOXE.u.w.,.-.Z x x y u r @ @ < 6 o +   # r { X.|  .| | | ( W w @ @ O o > o 1 f p r k k 4 N 5.1X].$X@X2X$X$X$X;X5X2X5X5X",
"=.xXxXt.xX/.u.w.-.G Z g 3 t y w r # @ 5 o > 6 o % w { | (  . . .X...W l # . o O o o 1 g e 9 l h Z 5 >.[.].$X2X$X2X;X$X>X=X5X6XtX",
"=.xXxXOXOXu.w.;.F Z 4 ; ; ; u e w @ = 3 o , 4 X % % ] | | j.j. .X.| ~ c e @ . > o o 4 g 9 9 i c Z n :.OX[.&X>X$X8X8X8X8X5X6X6X6X",
"=.zX<XdXxX,.H 5 x 5 s * $ : e r e % = 3 X . * = @ r ~ +.X.j.j.j.| X.U w 8 - & & & O * f s % r S G C %.w.[.[.[.;X$X2X9X9X%X$X>X$X",
"=.lXMXOX,.G x x z 5 3 * @ % e s e % e a O @ * = # r ! +.O.j.j.j.| | ! w 8 % @ O O O , 3 ; % e c ^ C F 6.t.u.[.;X;X4X4X4X2X%X@X@X",
"4.lXoX6.G 5 6 : 6 5 : $ $ % e e r = = a @ X = = % r / +.j.j.j.j.| | Y w 8 % @ o O & , * * % e h ^ B F >.6.t.@X[.%X%X4X4X$X%X@X@X",
"5.[.:.G Z 5 z 6 : 6 * X $ e e s j = = a & @ * = # r ! X.O.j.j. .| { P 8 % = . o o > , & . ; e e h f c %.,.6.r.@X#X4X2X4X8X;X>X@X",
":.5.G x x x x X $ * * & * < s e e = * a & @ = % # e E X.X.X.s. .| ~ v : % # . . o + , o . = 3 ; 9 9 c ^ ;.,.t.oX-X=X5X2X0X$X>X>X",
"#.%.G x x 5 z : $ $ @ @ = e r s a * = ; @ @ = % # 0 L } |  . .| | ] i : % $ . o   > > . o * 3 e % 9 c ^ ^ ;.w.}.&X+X5X5X5X0X>X>X",
"G G Z H z : z : $ X @ X * 3 a 3 ; @ * * & $ = % % w P ~ (  . . .| U w $ % $ . + o o o   O * 3 e 9 r E ^ ^ [ ,.6.}.&X=X5X$X$X$X$X",
"G Z x Z z 6 z : X X . . $ ; 3 ; 3 @ @ = @ $ 9 % 8 0 P U (  . .R { Y w @ % $ . O o o o O + + 5 f r w c / ! [ ;.;.{.'.+X#X@X$X$X@X",
"S S x z z : : $ $ $ @ X & 3 < X * & @ @ * = = # % v U ~ | X. .| | P w 7 % % $ . O o o o o 6 < 3 : z Y Q Q ] [ -.w.&X-X).%X5X$X%X",
"x x z z z z : : $ $ O X & 3 * $ = * & $ @ = 8 8 7 v ~ { X.j.j.O.+.U i w 8 $ . . X o o o X + , = u z c Q Q [ ] [ w. X&X].#X8X#X%X",
"x z z z z : : : : * 6 @ & ; * X 2 * & & $ = 9 w w P { +.O.z.Z.z.+.U J v v e $ . X X O   o O & = y i Y Q Q ] ] ^ ,.|.:X-X$X8X;X;X",
"x z z z z z z ; * ; 6 + + * $ X * * * @ @ % e y k L { O.O.Z.Z.z.O.U Y Y ~ Q y : $ X o   . O , 3 e i c Q Q Q [ [ >.y.:X$X$X;X;X9X",
"x z z z z z u z * < 1 + + $ $ o * * * $ @ % r k v U { +.Z.Z.Z.j.j.| Y U ..] Q x $ . . . . & 4 j a r c ! Q c ! H -.t.OX;X@X%X`.;X",
"x : : : z u u x ; 5 , + O + $ X o * 2 * $ % r k v L ~ 2.Z.A.Z.Z.j.R I Y ~ ] Q y $ $ . . . & N A 9 e c Q c c Q Q -.6.r.[.;X`.`.`.",
"x t : z : : : d * 5 , o   X X X   + ; * @ % r l k L | 1.Z.Z.Z.z. . .R Y Y ! c u ; : . . . = M F a r A Q c v c H -.,.r.`.;X`.`.;X",
"S z : : t : t x * , , o   . X X   O , * @ % r v i L X.2.O.O.O.j. .j.O.U Y ! P % y ; $ . . = M ^ j j A Q v z x Z -.6.t.[.;X`.`.;X"
};
