/* XPM */
static char *cf7f5a665d6b4d0bf4a92cd31396403ekAwUjqD5r5cfyZXK[] = {
/* columns rows colors chars-per-pixel */
"64 64 254 2 ",
"   c #020102",
".  c #0B0201",
"X  c #030905",
"o  c #0C0A04",
"O  c #03020A",
"+  c #0B030B",
"@  c #0B0B0A",
"#  c #05080B",
"$  c #130202",
"%  c #1B0300",
"&  c #120B05",
"*  c #1B0C03",
"=  c #130C0B",
"-  c #1B0E0A",
";  c #14040B",
":  c #1D1103",
">  c #13120D",
",  c #1C110B",
"<  c #141206",
"1  c #040312",
"2  c #0B0512",
"3  c #0D0B13",
"4  c #0D0A19",
"5  c #130C13",
"6  c #1B0C13",
"7  c #140818",
"8  c #151412",
"9  c #1B1313",
"0  c #191519",
"q  c #0E1112",
"w  c #220400",
"e  c #220C02",
"r  c #2B0B01",
"t  c #260909",
"y  c #360900",
"u  c #231305",
"i  c #2B1103",
"p  c #24140B",
"a  c #2A170D",
"s  c #351303",
"d  c #3C1301",
"f  c #39180A",
"g  c #270D16",
"h  c #221412",
"j  c #23131C",
"k  c #291817",
"l  c #331C13",
"z  c #361917",
"x  c #320E16",
"c  c #3A270B",
"v  c #2A231C",
"b  c #3D2511",
"n  c #3A2618",
"m  c #352B16",
"M  c #190B22",
"N  c #1A1624",
"B  c #1D1A32",
"V  c #0A1324",
"C  c #231522",
"Z  c #241B24",
"A  c #241B2A",
"S  c #2B1D2B",
"D  c #2A1A27",
"F  c #371928",
"G  c #291D37",
"H  c #341D38",
"J  c #260E24",
"K  c #1F232D",
"L  c #1E243A",
"P  c #292529",
"I  c #37272A",
"U  c #38322D",
"Y  c #2C2433",
"T  c #282936",
"R  c #34223B",
"E  c #382837",
"W  c #363538",
"Q  c #2C323B",
"!  c #460A00",
"~  c #431400",
"^  c #441B03",
"/  c #4C1C02",
"(  c #471809",
")  c #561905",
"_  c #441C18",
"`  c #521507",
"'  c #641804",
"]  c #43290C",
"[  c #4A2B0E",
"{  c #48220B",
"}  c #592708",
"|  c #442314",
" . c #432A13",
".. c #4B2A13",
"X. c #47271A",
"o. c #5A2B17",
"O. c #5A341A",
"+. c #43361C",
"@. c #662907",
"#. c #752D07",
"$. c #793309",
"%. c #682A15",
"&. c #6B3C1A",
"*. c #693418",
"=. c #773717",
"-. c #6D320C",
";. c #441C26",
":. c #472827",
">. c #552B28",
",. c #48362B",
"<. c #5A3628",
"1. c #472A37",
"2. c #552B37",
"3. c #483439",
"4. c #573536",
"5. c #64342D",
"6. c #683827",
"7. c #753B25",
"8. c #6A3334",
"9. c #6B343B",
"0. c #683838",
"q. c #743C35",
"w. c #662E3B",
"e. c #76441B",
"r. c #6D4019",
"t. c #56443A",
"y. c #504432",
"u. c #6A4329",
"i. c #794727",
"p. c #694735",
"a. c #774936",
"s. c #7C5435",
"d. c #715333",
"f. c #292541",
"g. c #392943",
"h. c #3A3846",
"j. c #3B3C50",
"k. c #472D44",
"l. c #572C46",
"z. c #443344",
"x. c #4B3344",
"c. c #483949",
"v. c #533444",
"b. c #5A3444",
"n. c #5A3749",
"m. c #573655",
"M. c #4B3553",
"N. c #632E46",
"B. c #62364A",
"V. c #673846",
"C. c #613551",
"Z. c #3E404C",
"A. c #45454B",
"S. c #554748",
"D. c #454653",
"F. c #564F5A",
"G. c #745747",
"H. c #68595A",
"J. c #775B53",
"K. c #695244",
"L. c #7B6555",
"P. c #6B6259",
"I. c #4D5068",
"U. c #6C5A66",
"Y. c #685E77",
"T. c #776866",
"R. c #716A74",
"E. c #5E6075",
"W. c #853A16",
"Q. c #84380D",
"!. c #843E2A",
"~. c #904918",
"^. c #854B2C",
"/. c #884829",
"(. c #964C2C",
"). c #89542A",
"_. c #985829",
"`. c #844B33",
"'. c #874835",
"]. c #954C33",
"[. c #885738",
"{. c #945433",
"}. c #9D5C32",
"|. c #995937",
" X c #A15827",
".X c #A55B35",
"XX c #9B643C",
"oX c #966439",
"OX c #8F6137",
"+X c #A76639",
"@X c #A56429",
"#X c #945745",
"$X c #A55C42",
"%X c #8A6447",
"&X c #996747",
"*X c #85695A",
"=X c #957056",
"-X c #AA6B4B",
";X c #A66947",
":X c #B56C48",
">X c #A9734D",
",X c #B7734C",
"<X c #A36C55",
"1X c #A97559",
"2X c #B77856",
"3X c #8A7564",
"4X c #957A67",
"5X c #8A7476",
"6X c #A57A66",
"7X c #B67C64",
"8X c #A36F61",
"9X c #C37B56",
"0X c #C57248",
"qX c #C67F6C",
"wX c #BD825E",
"eX c #A98577",
"rX c #B9896F",
"tX c #9E8A71",
"yX c #C8835B",
"uX c #D2825F",
"iX c #C68567",
"pX c #C98A72",
"aX c #C99476",
"sX c #D88C69",
"dX c #E5996F",
"fX c #5B5888",
"gX c #736C8B",
"hX c #7C77A3",
"jX c #665C8E",
"kX c #88798C",
"lX c #857DAA",
"zX c #938385",
"xX c #9B8996",
"cX c #8E878E",
"vX c #AD938D",
"bX c #BBA390",
"nX c #8989B4",
"mX c #9797B5",
"MX c #8F8BB1",
"NX c #A69AB6",
"BX c #A595A7",
"VX c #B6A4A7",
"CX c #D39887",
"ZX c #CDAA95",
"AX c #EFB094",
"SX c #D9B4A8",
"DX c #ECBAAC",
"FX c #DDC5B5",
"GX c #F0CCB0",
"HX c #9695C5",
"JX c #AA9DC9",
"KX c #DABDC2",
"LX c #F1D7CC",
"PX c #FFE9D2",
/* pixels */
"b | b X.f l f x z n h 6 0 3 4 1 4 4 0 4 B U T 0 K K 0 0 N N V 4 2 # 5 0 P U P * * $ - . = # 1 3 + 6 h.R 7 + +       X X   : | { ",
"X.X.X.:.z z z n :.I 9 ; 0 7 3 4 O 3 4 O O q 5 3 0 N K K Y Y Y P 0 +   @ 8 P I e * e l , 9 = 0 0 0 0 D.c.Y   . .   X X X   p | ..",
":.X.:.+.X.l z z I I 6 + 7 # 4 4 2 3 3 O O O O + O + = 0 D E Y C 5 . . . $ - u e f l l % $ = P P 9 Z c.Y P + . .     X X   p X.o.",
"m l X.n :.p a k z I ; + 3 O O O 2 # # O O O + + 2 ; $ + 6 j g ; . . $ $ * t f f | X._ r * h P D P P P 5 Z 0 ;       X     p  ...",
"p p k k l * t h h C ; + 5 O 1 # # # O O + 7 J J F E F x t t t t t w w a X.>.6.6.o.%.>.X.s i v 0 I k 8 8 Z Z + .           p | ..",
"9 - 9 p h - h h 6 9 5 5 3 + 4 4 #     O 7 J H k.l.l.b.2.;.F X.X...X.X.<.p.a.6.7.7.8.6.i.| r l a v P j K P P $ . .         u  ...",
"9 8 = 6 = 9 - 9 9 5 + 5 # O 0 3     O O 7 H l.m.m.l.l.4.w.5.<.5.6.a.s.'.'.!.7.=.=.=.7.<Xa.f r % * v U U Y W h . .         p X...",
"3 8 5 5 2 0 5 5 0 = O # O O 3 O       2 S x.m.m.B.N.w.N.9.5.5.q.s.[.a.i.'.'.(.].(.W.=.-X`.{ d w . . 0 0 U P 9 . .         p  ...",
"8 3 3 3 5 @ 5 3 2 +     O O O O     O N k.M.m.m.C.N.N.w.8.8.q.7.`.^.`././.].].].:X].!..X1Xu./ w $ . . o P k h   .       . p  .[ ",
"# #   O #   O O @ # O O O O O O O O 7 P k.M.l.C.N.N.N.w.q.q.q.q.`./.]././.].]..X].0X9X$XiX7X%X( w $ . X 0 U P o .   O     p  .[ ",
"O       O       + #   O   O O O O O J g.M.m.M.m.C.C.N.w.8.8.q.!.'.).{.^./.(.].(.$X$X:X2XaXwXrX6XO.% $ . 0 P k . .         p  .[ ",
"  O O   O       # X O   O   O O O 7 C g.c.M.m.m.C.C.V.w.8.q.q.'.'.].'././././.{..X.X:X9XiX2XiXrX%Xf . X < 8 X       O   . u  .[ ",
"                X     O   O O O 7 M H R k.I.m.M.m.C.B.N.9.q.a.'.].{.'.^.!.'.^.{..X,XiXyXiXiXpX7X6X..$ . @ > X X     O O   u  .[ ",
"O                         O O   M H g.g.M.m.m.m.m.m.B.V.0.0.9.q.'.[.'.i.`.`.`.{.#X$X-XyXaXpXpXrX6Xq.% . o > X       O   . u ..[ ",
"                          O O + G H g.g.g.g.g.R k.k.n.b.V.9.q.q.!.'.^.7.a.`.s.[.{.>X>X7XaXpXiX7X8Xa.w . o @ X       O   . p  .[ ",
"                    + X O   # 7 H H H H B M 2 7 7 j F :.>.<.4.8.8.q.6.%.7.u.6.a.s.s.a.i.^.*.i.[.1X[.% . o           O   . p | [ ",
"                  + + 7 4 O O M G R R A 7 M B 7 7 + . $ w e l :.<.>.} 6.*.( _ X.z t t r r ( ( ..[.#X* + #   O             u  ...",
"                    + 0 4 O 1 V g.g.H A J G R G S C * . . $ $ $ r X.%.6.} d w % $ . % t s | O.O.[.%Xw .       O         . u  .[ ",
"                    O N N 2 O M g.g.R H H H G J C 6 * * % e g t t >.6.*.) y w % t - t y ( 5.s.s.[.%Xs .   O   O         . u  ...",
"                +   + D N 4 O B G g.k.E 1.G M J J ; % f a t x x ;.5.6.7.i.{ d i p t % w d ^ 6.i.&X&Xs .     O             u +...",
".               .   + D M 2 1 N G k.z.3.E H J F 1.x x :.X.z ;.1.1.2.q.'.1X%.d f X.a y X.O.} 6.[.>X%Xs .                 . u  .[ ",
"              . + + ; C 7 2 1 A g.k.x.x.v.1.H J J x x z t _ 1.;.1.>.8.#XiX%.~ ^ f ( ~ } =.i.|.<X1XOXs $ .                 u  . .",
".           o . 5 j j j 7 2 2 N R R k.n.v.l.1.F ;.;._ f f ;.2.1.2.b.8.#XpX/./ / s ~ ~ ` =.#X<X2X2XOXc * &           X     u  . .",
". . .   . o @ = j I D C ; 7 7 N g.E z.v.l.l.N.l.;.;._ ( >.2.2.l.l.C.w.<XaX;X@./ { ~ ` @.{.;X-XwX2X[.( * -                 :  . .",
". . . o . o . & - D D k ; 7 1 7 H H 1.x.B.B.n.b.2.>.>.>.<.0.B.n.l.l.w.#XsX9X,X^.@.} *.{.+X-X2XyX;X[.[ l .                 u b  .",
". . . .   @ o P S.S C j D 7 O M G H k.x.B.S.B.V.V.w.5.8.0.V.V.B.l.C.V.#XqXqXiX2XXX^./.@X:X,X2XwX>Xi.O.a &                 u b ..",
"o . o   . < & 3.kX3.h g Y 6 + 4 G G E x.n.B.V.C.V.V.9.q.9.0.B.l.l.l.9.!.iXyX,X;X2XXX_..X+X,X2X,X2X} <.u o               X u b [ ",
"& . & . . o   S.xXH.6 7 F N 7 2 B G E z.n.V.C.V.V.9.q.9.0.w.b.l.l.k.w.!.yXuX:X}.XX}.|.}..X+X:X;X;X} <.* o O               u  . .",
"$ . & o . o   c.vXzX6 6 D Z C 4 B G g.k.v.n.B.V.V.q.q.0.0.4.2.l.k.2.w.!.9XuX+X(._.}.+X.X.X+X+X;X).O...: 8 O             . :  ...",
"o . & & o & . ,.xXBXg 6 j 0 N A B f.f.k.x.n.B.V.V.9.0.q.8.4.2.l.k.b.5.'.,X9X+X#./._.|.}..X+X+X+XOXu.b , @   O O     X   . u b [ ",
"o o . o . < & P tXVXU + 7 6 7 Y f.f.f.j.x.v.B.V.V.9.8.6.<.2.1.1.2.l.5.].:XsX,X$.=./.(.(.}.+XoXXX&Xu.i - # O O             u  .[ ",
"% $ . . . & - k R.VXS.+ 6 j + P B f.f.g.c.v.n.N.9.9.6.8.>.>.1.l.1.b.5.i._.:X,X=.@.~.)._.}.}.}.&XOX^ $ , q O #           . : b [ ",
"% :.vX6Xf w w i *XVXT.$ ; 9 k k T f.B j.h.z.v.B.q.8.6.5.5.1.F J j :.5.*./.@._.^.r.e._.oX_.@X@XoXd.i : 8 X X X       O     :  .] ",
"o.6XeXDXSX<.f * K.VXzX$ $ t X.F J G G R g.c.v.4.8.5.6.8.9.4.x.g.C t | o./.).>X;Xi.i.~._.oXXXOX=Xy.: : 8 X X               * b ] ",
"8Xq.a.<XZXGXSXrX6XvXeX4.l % t x R H Y G h.M.x.4.4.5.5.w.N.v.k.z.1.z <.`.&X,XwXwXoX).)._.@X+XOX&X] e , 8 X                 :  .] ",
"'.8.'.!.<XAXGXAXaX6XSXLXSXZX*X;.F C Z E g.z.1.S.2.4.<.4.2.1.k.1.z.:.>.a.|.;X1X2X>XoX).).oXoXoXs.r u , 8 @ X           O   : b ] ",
"#XpXqX$X(.}.,XwX>X;XaXaX7XDXDXKXKXkXg D E c.z.v.4.4.4.2.2.x.c.M.2.2._ i.&X;X;X;X1XoXOXOXOXOX&XO.r u , > @           O     : b ] ",
"qXCXDXAX_.~._._.+XiXAX>X7.7.G.8XvXR.D I Y E W x.3.2.3.2.2.k.k.k.3.K.6.'.;X|.;X[.OXOXXXXXoX[.OXc i i < > @               . :  .] ",
"!.!.$XAXAXyX~.~. XyXdX_.' %.%.>.4.3.g C A E h.z.3.1.:.;.;.F ;.F F :.( ) @.=.[.i.r.).OXOXoX%Xu.s e e - 8 @   X       O     : b ] ",
"q.q.#X$XAXGX0X~.Q. XyX+X' %.=.` z C D D Y Y R h.1.1.I F x x x x x w d ! y @.*.~ } r.).).OX%Xs i i u * 8 o   X             :  .] ",
"%.%.%.'.#X9XqX:X~.~.0X0XQ..X|.! x C I N N Y Y E E 3.3.1.>.:.;.;._ _ ` %.).>X&X).} } e.).[.u.i u i * : 8 @           O     * b ] ",
"%.5.o.o.q.'.$X9XqX.X.XqX X X-Xy t A A Z Y A T E E 1.3.2.>.:.;._ >.>.<.*.i.i.s.[.r.} e.e.OX{ i u i u , 8 @   X X           * b ] ",
"%.o.~ ( %.7./.$XdX9X XsX0X!.!.y $ Y A A Y D A Y E U 1.,.:.:._ ( f f ~ / } } r.s.e.r.e.OXs.r * l i * , 8 X X               : b ] ",
"{ a.*.y ~ ' %.!..XqX.X,X$X!.7.>.; P Y D P D P Z E I I 1.:.:.:._ z ( ( / } r.e.e.i.i.~.oXi.y e l i * , > @           O     : ] ] ",
"%.'.<X#X! y ' #.(.:X(.|.<XG.4.H.D 9 P S C S F P I I :.,.,.4.>.>.>.5.p.i.&.u.s.s.OXe.).@XtX] i p i * - > o X           O . * b ] ",
"7.a.&X7X<Xi.@.' ~..X.X[.CX:.F U.x.g g I k k k n P I I 1.3.3.3.3.4.<.d.[.i.i.d.OXs.e.).>XwXr.e p i * < > o                 : b ] ",
"!.7.'.|.;XwX,X$.$.@X1X<XSXF M Y.U.I g z z x g z F I I U U 1.3.,.,...<.u.u.e.d.s.e.).@X@X>X%X$ l i e - > @ X               : b ] ",
"%.' *.=.^.}.:X2X$.(.-X<XvXR B I.gXS.x a z a z a z z I I U 1.:.:.:. .O.O.O.r.i.r.e.).>Xr.OXtXu a a u , 9 @               . : c ] ",
"` ' !.q.' !.!.9X-X=.&Xu.%   T I.gXR.t.l f ] f y y b n :.:.:.I I n b { ] } } @.-.{.XX/.y tXvX: p a , < > @ X     X         u c c ",
"! ! 7.CX2X%.%.$X7X].7.y $   V D.I.F.H.3.X.| X.( y y f | ;._ | X.b b ] { d { @./.{.=.} d bXbX: v h , , 8 < X   X   O . . . e c c ",
"! ! ` qXCX` ` =.<X7X8.$ . O 1 I.I.P P.R.T.S.:.:.^ d d ~ _ ( d d d s s d { -.i.).-.@.! 6.PXvXp h , = > 9 > X X q # O       * c c ",
"` ! ` ].AX].` ! 7.7X0.% + O 1 Z.P.Q H.R.gXkXU.:.O.o.} ` { ) / ~ ^ / o.r.i.i.e.} } ) ^ 8XPXZXp , v k v v 8 X X X O O     . : c m ",
"!.Q.' ' .XqX!.'.6.p.z ;   O O 0 R.W F.E.jXgXgXU.4.O.%.*.%.%.@.@.*.-.*.*.%.} @.@.*.y a.SXPXKX9 v U 3.t.W W P K K N 4 # O   - v n ",
"(.Q.!.].!.$X<X&XG.b + O O O X   T.S.A.E.jXfXfXkXT.u.o.*.=.#.@.@.) @.@.-.-.} o.*.( ~ rXvXLXLXv h > P W W P P K Q h.Q Q A 5 , v U ",
" X~..X0X0X$X7X%XG.g O O O O     U T.A.I.fXfXjXjXxXL.6.=.=.W.#.#.$.#.@.@.%.=.%.o.y 3XeX4.t.bXy.o 8 v U W W Q K Q K T h.h.W U U I ",
"W. X~.0X9X:X<X#X,.& O O O     . 8 R.y.F.gXfXjXjXgX5X*Xu.*.=.W.$.Q.$.#.#.*.&.o.! K.6X*Xt.* S.P.X < @ 8 T A.W W Q L B L T R Q W I ",
" X_.~.@X+X>X6XG.$ O   X       .   S.P.S.kXmXHXlXlXcXkX4Xa.7.=.Q.Q.#.$.$.&.} / 6.eX*XJ.4.a : tX8 X q 8 0 U A.D.Z.Z.j.j.B f.T f.T ",
" X@X@X@X+X&X%Xz . O   X     .     I T.S.U.BXJXHXMXMXxXkX3X6.=.$.Q.#.=.@.*.o.[ 3X3XL.G.:.a a P.U X > 8 > K A.A.Z.Z.Z.Z.f.T T T U ",
"_.~.@X@XoX>Xp.o + O               o P.P.U.xXNXNXMXMXMXNXBXG.6.e.$.$.-.)./ ^ 6X6XG.L.P.U m p y.y.X < 8 > > P Z.A.D.D.j.Z.T K K T ",
"@X@XOXoXOX%Xa . O O           . O   ,.T.5XkXBXNXmXnXHXJXJXkXu.r.=.#.e.} ^ tXSX*XL.3X*Xd.,.c m m X @ > < < 8 U A.Z.Z.j.h.B K T Q ",
"@X@XOXoX%XK.    O               # O & t.5X5XcXmXmXlXmXHXmXNX*Xu.r.e.O.[ =XGXbX*XL.tXL.L.d.+.m c X o o 8 @ X 8 W h.A.Z.V V K h.T ",
"_.oXOXL.*XU   + O O O         O O X   , P.cXP.cXmXMXnXnXmXmXxXp.e.e.s.tXZXZXbXL.tX*XL.tXL.y.y.c o   < 9 < X o P A.h.W K T T Q T ",
"_.oXd.L.H.= O       O +   O   O 1 1 X < A.zXE.R.hXnXhXhXMXmXmX3XG.aXGXGXFXaXtXtXL.L.tXL.*Xd.y.+.o X < > > < o 8 W W Q Z.Z.Q K T ",
"~.e.O.J.S.O # O O   O + O O O O 1 q X X m P.kXE.hXnXlXhXlXmXcXtXFXPXGXPXFXtXtXL.tXL.tXG.L.P.+.+.o o o < < < < < W A.W h.Q Z.Q K "
};
