/* XPM */
static char *wall[] = {
/* columns rows colors chars-per-pixel */
"64 64 78 1 ",
"  c #262A23",
". c #2A2E25",
"X c #2E322C",
"o c #32352E",
"O c #33392D",
"+ c #333631",
"@ c #353A33",
"# c #393D35",
"$ c #363B38",
"% c #3B3E39",
"& c #3C4136",
"* c #3E423B",
"= c #41453D",
"- c #44493E",
"; c #3E4341",
": c #424541",
"> c #464A43",
", c #494D45",
"< c #464B49",
"1 c #4B4E49",
"2 c #4C5146",
"3 c #4D524B",
"4 c #51554D",
"5 c #54594E",
"6 c #585A4F",
"7 c #4E5351",
"8 c #535651",
"9 c #565A52",
"0 c #5A5D55",
"q c #565A59",
"w c #5A5E59",
"e c #5C6156",
"r c #566058",
"t c #5E635B",
"y c #606557",
"u c #62655C",
"i c #64695E",
"p c #686C5E",
"a c #5D6361",
"s c #626761",
"d c #666B62",
"f c #696D64",
"g c #676C69",
"h c #6A6E69",
"j c #6C7166",
"k c #6D736A",
"l c #707466",
"z c #747867",
"x c #71756C",
"c c #74796E",
"v c #787C6E",
"b c #6E7271",
"n c #727671",
"m c #757A73",
"M c #797D74",
"N c #767B78",
"B c #7A7E79",
"V c #7C8176",
"C c #77807A",
"Z c #7D827B",
"A c #838577",
"S c #81857C",
"D c #84897D",
"F c #898C7E",
"G c #7E8381",
"H c #7F8981",
"J c #838681",
"K c #858A82",
"L c #898D84",
"P c #848A88",
"I c #898E8A",
"U c #8A9086",
"Y c #8D928B",
"T c #92958C",
"R c #93998F",
"E c #919793",
"W c #949A93",
"Q c #9EA39D",
/* pixels */
"qq7:<;&*&*$;>:8663911q<;*737w14,=,:,%o%:#+,##%:#:%%:#::%,:%1%%%:",
"Nbbgntgxgaadn>2hLCNnnCmnxZnnJJBhxz6=+,fMphhuuu67qwwwulu=::6hh6gs",
"MNNGLxZZNCxNGt=vWZnBHGZnBJkBGJMhvAh11bAnhFJMAAhhfhhuhllu,:hJBqNh",
"xNNBZNDNfmhnnh%kNNNCNknbmBnBAxhhlAA06MJnMLF6hMJJvllvFAAh1:hhhabb",
"nnnnnHMxNxmmBs:nmBBGnkNMMBAJSxxxMAA6wMBnAAB6wxGBxnMhlxAA7;bghhhb",
"nxxCmBddCkNNhq@hBmnnmNMnnnBnMnMxnhh1uMBxvxxpsxxhMxxnAMnxq;bbhbgN",
"xmxZZnsdcCCZbs*mBnmNbnnmMMMvnMAMhhn16hAAxhhhhxhnnhxAhuhAq;bbbbbb",
"kNkNCknNxxmbGt;mInNknBxcNnnBxMnMMnx1wnAhhxAxMlxMphxxupvvq<NGbbNa",
"nGmSZZVCxxCnCt>NKmmhNVBSCmCccmVCAxh16SSjmVzllvMMfvnlhhhJsqJGNbbh",
"SKmSAZVCCxNmKn1mZkggxmBSVCmVClVLMnv6fLKMMVzzzlpnhvnhhMAAs<JGbNbG",
"mJKYTSccNmMBHN<gZCMCmZDSVZZLUDDZAAA6fAmxVSAMAlpJMnnxxAJnq%GJGJGJ",
"mBMmCsiCCZZBNr$3nDZChVSxxVxDRUFCAAh60mmGBJSzfufAMxbnBMhu<;qbGGNh",
"97tud>353338q;$*2r3,&,52rr6jxdt461:=%78w0t42,406:,1767::::$<qqq<",
"s14143ddrsdsr7rattr4236i4,*-2q4-:#=<;<:;===,&,1%,uu866quswq6qqsq",
"mstt3kWUdkZcakCZKZVCDCVFl,**,dkkuw6q70wgyefh44%:MSAxxMAJIJJJJJJJ",
"kggh*kRCjcUCyUHZZmcVULVFZ,5dswuSSJBnxMMSzfcMwu$qSMxxxMBMAbJJMJJA",
"6hif3mKcBxD5dKCmmcnMMvmDF00xielSAAMSBJJBpcZdra>*AfxkxCNhcZBxkBVl",
"hiud2kkdZmMjMCzjZBcvMvMDA2,xxmkmAMxAJSBBkCktkc;3MfxxCCZxmMmhgnVm",
"Myiu&e9eIGxxMmcvnmhlzlcxv,,DCSxknxxBTABBCckcCm,4ScnxcmxgmnnxhmMM",
"ShMiXeikHKxvNmvznBhlzlCzV31ZnCnmlhvMJMSMcitzmC,<Mckkckfxmxnmnxcc",
"CCKd 2ryZGCmxMzzCSlxxjvvF22NBBnnMvSASSYn9e9inC*1KMkxckhVNxxnxxnc",
"pcZk&5dknmNmkNkVHCdpjpvVF22cBBnxAASBBLYhejjkfn34UKxxxgxZCmmNmnvc",
"VCFd@5idkMZVNBNZPnyjzVVAF52zknxmvMvnmJZkVlCcfmr*VDmmCCZZZCZNnnMM",
"VVYp&dVKKTFmNBPIYxylAAVFA53ZNMdinFBJKLKDVCCisx4>xKDDZLUZZSBxgxSD",
"VFC2#-pMDTMffNZChaitppvAe=%1ghtgMx6unMJMVxxit3;;dvMZCCZZCnfsqgcC",
"--&&#=-234#*3q31*$,2=##&##*#&*>q6,%,616wt2&**O&<2502,34e71:,*222",
"firr6060uu=,1<1bntii542=3w00rgngs,##1ghueep0*t>t0e025-O&=-*:,9ii",
"ZCkpupplzc2unwbRQKZlyvv0unMMnmHnn1==4fBLSxL6dCkgcMvzzp-&1gs93jCC",
"nxkkckhpll1hJ8BRYZZciVZdMLLLBBTTxk8w6xGMBmghfbxbuxcljyt*5ZZgdxVm",
"nhncCjpphAhBB$mWCxCllpkfmncncnZJYn1BBMmxffhmnuhnnxxczik,5CmxxCCZ",
"kkcclddkpvmGn%nKCxcjVkxxcMMcxxnBKmqmJBBnmnfkfBhxMffvZit&<ngdkklx",
"jCccjjdpzcmBg=kSzxx9ljzNxzxfnBmSGnwBIGBNvmhsxhMpqfzlVna*;nkfkkdk",
"bcCncddpxVnmh=kDAsf1lhzhhMphMABJIHrCIZZNkCpdxjrrrlljVpy&-CCjijij",
"kdpjkkirjxnnh*mYhsxpMnlpxuuAAnnJGHdZZnxxdkjpjgyyCCkpCy5&-Cxjdggj",
"ckkCClllhxSJx*xJxhlplMlhxhhnBJJnCGaxZJCkpkjdijyikpjpVyr&-dCxpyjd",
"95yjclxcfdkf0+xLulvxlxxlffnMMhALCCrrtkMxnnljjCjCCCciCr5O&5pxCCCr",
"drryiixlfr9r6*scuvJAzlMAMvvFAuhJBnw9qhBJmxxlCZdjjCCpyr2&@5cClVCp",
"Ckjdriddtidr=o4xvvh666uulpulAvlhs,%1ughkqtieytrtpiyir5*&*5dgryyp",
"&*3,*;2*&**,==%%##. oo=#,=%,7:++$o#==:=:@@*O-&*;&&OO&-&**&&O&*#O",
"3<>*&4dr4ttiuhus6h666,,#==%66uu7,40:%,8qtr4*>&*;2ykyipjirri2r555",
"hku&-mi66uuphpslxlnzf6661#66pvhnkhkp5gnktd4357X>CVjCCjddpCkjgdCC",
"cxp=2nfdwuhhsusphuplf6666%6hhhfhhpMtaHCkacr4ri>4ppiyididdpdjddCp",
"xkj*2kkkufxxupxfuzvp66661ouxppfuifx4jdjbgnkrrg*4zjdCjidjdjidjdpi",
"ifx&*dfiuuhhufhfplpp666u=ouMuphwag12bgiistxfad+4Cjjjdiidddidjjji",
"ttl**ii6ufsuhlhsllusuu66:=uAphhurt3rrHiitdtxkr*4zjjjjdjdiiiiijdi",
"tid:-iutuhfsxxhshvhuupxx1%uzhuuhttdk35pysfdght*qzppiyryraiiyriri",
"dyt-=jljfuuhxhhfhuufu6xA6ouxpuuhkidyrOi5srkdkx&tCjpjiididtdiyiyi",
"die&*mVxMhxnhhhhlphhhfAx6#xxuhhhykd5l5yCsgfkmgX8Cyyjdidgdidirirt",
"ycp*@wkjVVmvzzxxhhhluAAn6:nAfuhlrpVyiyjxjslknk%,ijjplljyppjyytyp",
"tyr*%4tuhkdxngtauupuhAJA1%uhhhlp55yVpe3VxlxCx0#2yjjppjyr5r5ritrr",
"2;&Xo$=2,8,4qq77::1,6666:%16616632*r32$qdt4q1&@-25--,>23*;O%>;*@",
"&O***#o$@;o$@$$;:%o+.::#:1%+ooo#&O*&&&@&-*oo+;-,&&&&-&O&@*O@@&*&",
"dtu880tgfw6d3O@3ww66%fluhh6161113&O&,364422>>444rrpyr5#O-rirritd",
"iihdsfhxxfhxe@=e66qh,6uphs6quhhsj3X*rnmsdhhhe99ujpzr55*X,eie5jir",
"tiddddgkuuuwy=-u6:16u,16uu6q6wuurrX<thdtfduxjrixiilyy55O6ptrriyr",
"uypddt4etuwwx=&y6666uu66s66swsuw5rX>xdijgj7hktdtpyypp2rOrjryrddd",
"uupxs6:quswwu%%hh646u6ul6wupupuui4*2kudgadk3tddigrsdi33$,lryyypp",
"spulu6qhsuuuh%:fu6667wnu,0up6u66,&+:dutiiddt<skitisrr98+5p6rri3r",
"puuhhuuswuuux#1h6s6us6uufhhxhuuut5&=uksuetddr5r5trtyyy9X,peyye2r",
"l6ppuf6u0uu0h%6f6h61uufuf00upwwuft++,sdurtiid2riytriyi4 *jrey6ey",
"huphuuuppuuup:6uux66hswsuuppuuuusso=:tuuijdddtdatsaitlr.>jirirdd",
"6hlxf6hphpuxu=:6b6hJxsfsphhphhhus6o44ttushsrcdttsfdckj5X*akgpdrd",
"66u6,:uw44wu6%%167uu1psuqwuwghhuw,%16uwuq71*grrggatgr1+X@,ddr8,9",
"1,u:%,:=+o%%:11%:+<:o::%1<71711,=@,+$#+=$++@@>*@*;$++X+;+&*,;$&*"
};